<?xml version="1.0" encoding="UTF-8"?>
<svg xmlns="http://www.w3.org/2000/svg" xmlns:xlink="http://www.w3.org/1999/xlink" width="892pt" height="696pt" viewBox="0 0 892 696" version="1.1">
<g id="surface1">
<path style=" stroke:none;fill-rule:nonzero;fill:rgb(0%,0%,0%);fill-opacity:1;" d="M 531 167.949219 C 513.570312 171.714844 496 180.292969 476.398438 194.609375 C 449.167969 214.496094 426.835938 236.699219 400.570312 270 C 364.679688 315.5 344.367188 354.460938 337.070312 391.800781 C 335.253906 401.101562 335.773438 419.925781 338.050781 427.300781 C 342.070312 440.304688 351.199219 450.71875 364.398438 457.359375 C 375.886719 463.136719 382.398438 464.464844 398.5 464.3125 C 437.800781 463.9375 486.714844 444.75 524 415.078125 C 537.101562 404.65625 547.242188 394.519531 546.800781 392.300781 C 546.121094 388.914062 543.300781 389.976562 535.398438 396.585938 C 509.746094 418.050781 460.800781 442.714844 429.5 449.945312 C 426.699219 450.59375 422.738281 451.519531 420.5 452.054688 C 405.898438 455.535156 389.539062 455.898438 379 452.976562 C 361.398438 448.097656 348.796875 436.621094 344.433594 421.5 C 343.046875 416.699219 342.824219 413.300781 343.324219 404.5 C 345.28125 370.074219 364.898438 330.601562 404.703125 281 C 448.359375 226.601562 505.652344 182.367188 541.300781 175.535156 C 550.300781 173.8125 554.84375 174.800781 558.617188 179.300781 C 561.488281 182.71875 561.828125 189.398438 559.476562 196 C 557.511719 201.5 558.746094 202.847656 562.699219 199.527344 C 573.675781 190.316406 569.199219 170.929688 555.199219 167.023438 C 549.753906 165.507812 540.699219 165.851562 531 167.949219 "/>
<path style=" stroke:none;fill-rule:nonzero;fill:rgb(0%,0%,0%);fill-opacity:1;" d="M 193.699219 565.445312 C 184.304688 568.800781 178.171875 577.300781 177.289062 588.199219 C 176.335938 600 180.929688 609.4375 190.101562 614.511719 C 194.824219 617.125 196.5 617.5 203.5 617.5 C 209.800781 617.5 212.371094 617.035156 215.601562 615.304688 C 219.601562 613.164062 227 605.890625 227 604.101562 C 227 603.597656 225.648438 602.734375 223.949219 602.148438 C 221.136719 601.179688 220.613281 601.398438 217.175781 605 C 205.132812 617.617188 184.96875 609 184.890625 591.199219 C 184.835938 578.699219 191.964844 571 203.601562 571 C 209.5 571 213.90625 572.945312 217.632812 577.199219 C 220.613281 580.601562 220.789062 580.660156 223.898438 579.351562 L 227.101562 578 L 225.3125 574.898438 C 220.105469 565.863281 205.101562 561.378906 193.699219 565.445312 "/>
<path style=" stroke:none;fill-rule:nonzero;fill:rgb(0%,0%,0%);fill-opacity:1;" d="M 264.5 565.066406 C 259.085938 566.808594 253.757812 571.398438 250.652344 577 C 248.007812 581.765625 247.59375 583.5 247.5625 590 C 247.515625 599.199219 249.078125 604.039062 253.765625 609.199219 C 259.507812 615.527344 264.199219 617.5 273.5 617.5 C 280.5 617.5 282.164062 617.132812 286.800781 614.574219 C 297.863281 608.464844 302.640625 595.101562 298.589844 581.601562 C 296.730469 575.398438 292.96875 570.65625 287.300781 567.367188 C 283.609375 565.226562 281.199219 564.640625 275.101562 564.398438 C 270.898438 564.234375 266.15625 564.53125 264.5 565.066406 Z M 282.601562 573.082031 C 290.265625 576.777344 294.015625 586.199219 291.84375 596.300781 C 288.253906 613 264.980469 616.15625 257.207031 601 C 255.285156 597.25 254.949219 595.300781 255.199219 589.300781 C 255.464844 583 255.882812 581.625 258.550781 578.300781 C 260.234375 576.199219 263.121094 573.734375 265 572.785156 C 269.730469 570.398438 277.300781 570.527344 282.601562 573.082031 "/>
<path style=" stroke:none;fill-rule:nonzero;fill:rgb(0%,0%,0%);fill-opacity:1;" d="M 325 590.5 L 325 617 L 333 617 L 333 594 L 351 594 L 351 587 L 333 587 L 333 571 L 354 571 L 354 564 L 325 564 L 325 590.5 "/>
<path style=" stroke:none;fill-rule:nonzero;fill:rgb(0%,0%,0%);fill-opacity:1;" d="M 378 590.5 L 378 617 L 385 617 L 385 594 L 404 594 L 404 587 L 385 587 L 385 571 L 407 571 L 407 564 L 378 564 L 378 590.5 "/>
<path style=" stroke:none;fill-rule:nonzero;fill:rgb(0%,0%,0%);fill-opacity:1;" d="M 430 590.5 L 430 617 L 438 617 L 438 564 L 430 564 L 430 590.5 "/>
<path style=" stroke:none;fill-rule:nonzero;fill:rgb(0%,0%,0%);fill-opacity:1;" d="M 466.648438 564.648438 C 466.292969 565.007812 466 576.949219 466 591.148438 L 466 617 L 495 617 L 495 610 L 474 610 L 474 594 L 493.101562 594 L 492.5 587.5 L 474 586.898438 L 474 571 L 495 571 L 495 564 L 481.148438 564 C 473.550781 564 467.007812 564.292969 466.648438 564.648438 "/>
<path style=" stroke:none;fill-rule:nonzero;fill:rgb(0%,0%,0%);fill-opacity:1;" d="M 527.398438 565.070312 C 525.597656 565.59375 522.847656 567.550781 521.101562 569.550781 C 518.632812 572.375 518 574 518 577.5 C 518 586.324219 521 589.101562 535.101562 593.34375 C 540.199219 594.878906 544.464844 596.820312 545.757812 598.199219 C 552.3125 605.195312 543.601562 613.859375 532.898438 610.988281 C 528.398438 609.78125 524 606.03125 524 603.398438 C 524 602.089844 523.398438 601.929688 520.699219 602.511719 C 516.300781 603.460938 515.554688 604.378906 516.972656 607.101562 C 521.53125 615.84375 533.101562 620.027344 544.199219 616.953125 C 552.699219 614.601562 557.433594 606.820312 555.125 599 C 553.53125 593.601562 549.398438 590.71875 538.601562 587.46875 C 525.800781 583.613281 522.324219 579.3125 527.320312 573.5 C 531.773438 568.316406 541.675781 569.199219 546.359375 575.199219 C 548.40625 577.824219 549.101562 578.109375 551.898438 577.488281 C 555.644531 576.65625 555.699219 576.300781 552.785156 571.898438 C 548.324219 565.167969 537.300781 562.203125 527.398438 565.070312 "/>
<path style=" stroke:none;fill-rule:nonzero;fill:rgb(0%,0%,0%);fill-opacity:1;" d="M 581 590.5 L 581 617 L 588 617 L 588 594 L 614 594 L 614 617 L 622 617 L 622 564 L 614 564 L 614 587 L 588 587 L 588 564 L 581 564 L 581 590.5 "/>
<path style=" stroke:none;fill-rule:nonzero;fill:rgb(0%,0%,0%);fill-opacity:1;" d="M 661.5 566.300781 C 651.234375 571.234375 646.472656 580.101562 647.210938 592.898438 C 647.933594 605.398438 653.761719 613.34375 664.601562 616.601562 C 685.121094 622.773438 702.632812 606.800781 698.917969 585.300781 C 697.605469 577.699219 693.847656 572.097656 687 567.53125 C 683.230469 565.019531 681.449219 564.550781 674.550781 564.25 C 667.648438 563.949219 665.785156 564.242188 661.5 566.300781 Z M 684.5 574.402344 C 695.292969 582.648438 694.101562 602.925781 682.5 608.4375 C 672 613.425781 661.433594 610.304688 656.308594 600.699219 C 655.167969 598.566406 654.582031 595.148438 654.550781 590.449219 C 654.507812 584.449219 654.910156 582.773438 657.265625 579.199219 C 661.234375 573.179688 666 570.925781 674.101562 571.242188 C 679.601562 571.457031 681.332031 571.984375 684.5 574.402344 "/>
<path style=" stroke:none;fill-rule:nonzero;fill:rgb(0%,0%,0%);fill-opacity:1;" d="M 725 590.398438 L 725 617 L 732 617 L 732 597.199219 L 741.398438 596.847656 C 751.5 596.472656 754.179688 595.355469 758.332031 589.800781 C 763 583.554688 761 572.363281 754.300781 567.246094 C 750.882812 564.640625 750.050781 564.480469 737.851562 564.148438 L 725 563.800781 Z M 749.800781 572.546875 C 752.253906 574.269531 754.085938 579.898438 753.269531 583.199219 C 752.945312 584.5 751.828125 586.476562 750.699219 587.75 C 748.929688 589.742188 747.75 590 740.351562 590 L 732 590 L 732 571 L 739.800781 571 C 745.199219 571 748.277344 571.476562 749.800781 572.546875 "/>
</g>
</svg>
